# xmcd
#
# Track frame offsets: 
#        150
#        26031
#        43200
#        59267
#        73781
#        92716
#        106617
#        116771
#        142453
#        156687
#        170333
#        182872
#
# Disc length: 2648 seconds
#
# Revision: 2
# Processed by: cddbd v1.5.1PL2 Copyright (c) Steve Scherf et al.
# Submitted via: ExactAudioCopy v0.95b3
#
DISCID=b60a560c
DTITLE=Cindy Cashdollar - Slide Show
DYEAR=2004
DGENRE=
TTITLE0=Sliding Home [with Sonny Landreth]
TTITLE1=Midnight in Old Amarillo [with Herb Remington]
TTITLE2=Something I Can't Do [with Marcia Ball and Johnny Nicholas]
TTITLE3=Slide Show [with Steve James]
TTITLE4=Living in the Moment [with Jorma Kaukonen]
TTITLE5=The Other Woman in My Life [with Mike Auldridge]
TTITLE6=Speedin' West [with Lucky Oceans and Red Volkaert]
TTITLE7=Milk Cow Blues [with Johnny Nicholas]
TTITLE8=Twin Guitar Special [with Herb Remington]
TTITLE9=Spanish Fandango [with Steve James]
TTITLE10=Keep My Heart [with Mike Auldridge]
TTITLE11=Locust Drive
EXTD=CD: Silver Shot Records SS 9481 (2004-04-06), UPC 678572948121.
EXTT0=(Colin Linden/Jim Weider)
EXTT1=(B. Bowman)
EXTT2=(Mike Duke)
EXTT3=(Cindy Cashdollar/Steve James)
EXTT4=(Jorma Kaukonen)
EXTT5=(Don Rollins)
EXTT6=(Speedy West)
EXTT7=(Kokomo Arnold)
EXTT8=(Leon McAuliffe/Eldon Shamblin)
EXTT9=(trad., arr. Cindy Cashdollar/Steve James)
EXTT10=(Mike Auldridge)
EXTT11=(Cindy Cashdollar)
PLAYORDER=
